<svg id="Camada_1" data-name="Camada 1" xmlns="http://www.w3.org/2000/svg" viewBox="0 0 123.64 31.69"><defs><style>.cls-1{fill:#010101;}</style></defs><path class="cls-1" d="M22.41,4.7H4a.63.63,0,0,0-.63.63V35.76a.63.63,0,0,0,.63.63H22.41a15.85,15.85,0,1,0,0-31.69Zm14.31,13A12.29,12.29,0,0,0,24.78,8.25H4.65V7.1A1.15,1.15,0,0,1,5.8,6H22.41A14.6,14.6,0,0,1,36.72,17.72ZM4.65,31.57V30.42A1.15,1.15,0,0,1,5.8,29.27H27.19a8.74,8.74,0,0,0,8.2-5.75,11,11,0,0,1-10.61,8.05ZM24.78,9.51a11.05,11.05,0,0,1,10.61,8.06,8.74,8.74,0,0,0-8.2-5.76H4.65V10.66A1.15,1.15,0,0,1,5.8,9.51ZM12,28a.84.84,0,0,1-.84-.83V13.91a.84.84,0,0,1,.84-.84H27.19a7.47,7.47,0,0,1,0,14.94ZM7.88,28V13.8s0,0,0-.06a.67.67,0,0,1,.67-.67h1.3V27.35a.67.67,0,0,1-.67.66ZM4.65,13.78v0a.67.67,0,0,1,.67-.67h1.3V27.35A.67.67,0,0,1,6,28H4.65ZM22.41,35.13H4.65V34A1.15,1.15,0,0,1,5.8,32.83h19a12.29,12.29,0,0,0,11.94-9.47A14.6,14.6,0,0,1,22.41,35.13Z" transform="translate(-3.39 -4.7)"/><path class="cls-1" d="M59,10.11H49.87V30.73h9.45c6.95,0,11.43-4.1,11.43-10.44S66.37,10.11,59,10.11Zm-5.41,3.3H58.2a10.85,10.85,0,0,1,6,1.44c1.73,1.15,2.6,3,2.6,5.62,0,6-4.84,7-7.73,7H53.62Z" transform="translate(-3.39 -4.7)"/><path class="cls-1" d="M80.87,15.53c-5.28,0-9,3.22-9,7.83s3.7,7.81,9,7.81,9-3.21,9-7.81S86.15,15.53,80.87,15.53Zm0,12.44c-3.1,0-5.28-1.9-5.28-4.61s2.18-4.63,5.28-4.63,5.29,1.91,5.29,4.63S84,28,80.87,28Z" transform="translate(-3.39 -4.7)"/><path class="cls-1" d="M100.67,15.53a5.44,5.44,0,0,0-5.34,3.7h-.18a8.34,8.34,0,0,0,.3-2.71c0-.15,0-.29,0-.43V16H92V30.73h3.51V24.56c0-5.07,4.06-5.33,4.87-5.33a7.85,7.85,0,0,1,2.09.28l.19.06V15.83l-.1,0A5.59,5.59,0,0,0,100.67,15.53Z" transform="translate(-3.39 -4.7)"/><path class="cls-1" d="M106.21,9.91a2.26,2.26,0,0,0-2.39,2.15,2.38,2.38,0,0,0,4.75,0A2.26,2.26,0,0,0,106.21,9.91Z" transform="translate(-3.39 -4.7)"/><rect class="cls-1" x="101.06" y="11.25" width="3.52" height="14.78"/><path class="cls-1" d="M123.74,25l-.06.12A5.36,5.36,0,0,1,118.57,28c-3.14,0-5.33-1.91-5.33-4.63s2.13-4.61,5.17-4.61c2.24,0,3.93.94,4.65,2.58l0,.12,3.34-1.27-.06-.14c-1.25-2.77-4.28-4.49-7.92-4.49-5.26,0-8.93,3.22-8.93,7.83s3.69,7.81,9,7.81c4,0,7.16-1.81,8.45-4.83l.06-.14Z" transform="translate(-3.39 -4.7)"/></svg>